<svg width="22" height="19" viewBox="0 0 22 19" fill="none" xmlns="http://www.w3.org/2000/svg">
<path d="M12.299 1.14799L20.933 16.102C21.0646 16.33 21.134 16.5887 21.134 16.852C21.134 17.1153 21.0646 17.374 20.933 17.602C20.8014 17.83 20.612 18.0194 20.384 18.151C20.156 18.2827 19.8973 18.352 19.634 18.352H2.36599C2.10269 18.352 1.84403 18.2827 1.616 18.151C1.38798 18.0194 1.19863 17.83 1.06698 17.602C0.935332 17.374 0.866026 17.1153 0.866028 16.852C0.86603 16.5887 0.935339 16.33 1.06699 16.102L9.70099 1.14799C10.278 0.147995 11.721 0.147995 12.299 1.14799ZM11 13C10.7348 13 10.4804 13.1054 10.2929 13.2929C10.1053 13.4804 9.99999 13.7348 9.99999 14C9.99999 14.2652 10.1053 14.5196 10.2929 14.7071C10.4804 14.8946 10.7348 15 11 15C11.2652 15 11.5196 14.8946 11.7071 14.7071C11.8946 14.5196 12 14.2652 12 14C12 13.7348 11.8946 13.4804 11.7071 13.2929C11.5196 13.1054 11.2652 13 11 13ZM11 6C10.7551 6.00003 10.5187 6.08995 10.3356 6.25271C10.1526 6.41547 10.0356 6.63974 10.007 6.883L9.99999 7V11C10.0003 11.2549 10.0979 11.5 10.2728 11.6854C10.4478 11.8707 10.6869 11.9822 10.9414 11.9972C11.1958 12.0121 11.4464 11.9293 11.6418 11.7657C11.8373 11.6021 11.9629 11.3701 11.993 11.117L12 11V7C12 6.73478 11.8946 6.48042 11.7071 6.29289C11.5196 6.10535 11.2652 6 11 6Z" fill="#FFF502"/>
</svg>
